<svg xmlns="http://www.w3.org/2000/svg" width="192" height="192" viewBox="0 0 192 192" fill="none">
  <rect width="192" height="192" rx="28" fill="#0F172A" />
  <path
    d="M49 58C49 53.5817 52.5817 50 57 50H116C129.807 50 141 61.1929 141 75V104C141 117.807 129.807 129 116 129H57C52.5817 129 49 125.418 49 121V58Z"
    fill="#F8FAFC"
  />
  <path d="M63 67H113C120.18 67 126 72.8203 126 80V99C126 106.18 120.18 112 113 112H63V67Z" fill="#CBD5E1" />
  <path d="M63 120H117C120.866 120 124 123.134 124 127V129H63V120Z" fill="#94A3B8" />
</svg>
