<svg xmlns="http://www.w3.org/2000/svg" width="512" height="512" viewBox="0 0 512 512" fill="none">
  <rect width="512" height="512" rx="72" fill="#0F172A" />
  <path
    d="M130 155C130 143.954 138.954 135 150 135H309C343.242 135 371 162.758 371 197V269C371 303.242 343.242 331 309 331H150C138.954 331 130 322.046 130 311V155Z"
    fill="#F8FAFC"
  />
  <path d="M165 183H300C318.778 183 334 198.222 334 217V267C334 285.778 318.778 301 300 301H165V183Z" fill="#CBD5E1" />
  <path d="M165 350H311C321.493 350 330 358.507 330 369V375H165V350Z" fill="#94A3B8" />
</svg>
